<svg width="281" height="280" viewBox="0 0 281 280" fill="none" xmlns="http://www.w3.org/2000/svg">
<rect x="0.524414" width="280" height="280" rx="140" fill="#00F370"/>
<path d="M214.835 86.0781C207.894 79.1374 199.825 73.702 190.821 69.8972C181.511 65.953 171.616 63.96 161.414 63.96H120.536C110.362 63.96 100.481 65.9669 91.1849 69.8972C82.1955 73.702 74.1119 79.1514 67.1713 86.0781C60.2306 93.0049 54.7951 101.088 50.9903 110.092C49.3318 113.994 48.0357 118.008 47.0601 122.092H59.0599C59.7707 119.555 60.6487 117.06 61.6801 114.621C64.8995 107.012 69.5127 100.169 75.3802 94.301C81.2477 88.4335 88.0909 83.8203 95.7005 80.6009C103.575 77.2699 111.951 75.5834 120.578 75.5834H161.4C170.027 75.5834 178.403 77.2699 186.278 80.6009C193.887 83.8203 200.73 88.4335 206.598 94.301C212.465 100.169 217.079 107.012 220.298 114.621C223.629 122.496 225.316 130.872 225.316 139.499C225.316 148.126 223.629 156.502 220.298 164.377C217.079 171.986 212.465 178.829 206.598 184.697C200.73 190.565 193.887 195.178 186.278 198.397C178.403 201.728 170.027 203.415 161.4 203.415H120.578C111.951 203.415 103.575 201.728 95.7005 198.397C88.0909 195.178 81.2477 190.565 75.3802 184.697C69.5127 178.829 64.8995 171.986 61.6801 164.377C60.6487 161.938 59.7846 159.457 59.0599 156.934H47.0601C48.0217 161.018 49.3318 165.018 50.9764 168.906C54.7812 177.896 60.2306 185.979 67.1573 192.92C74.098 199.861 82.1676 205.296 91.171 209.101C100.467 213.031 110.348 215.038 120.522 215.038H161.4C171.588 215.038 181.483 213.045 190.807 209.101C199.797 205.296 207.88 199.847 214.821 192.92C221.762 185.979 227.197 177.91 231.002 168.906C234.946 159.596 236.939 149.701 236.939 139.499C236.939 129.297 234.946 119.416 231.002 110.092C227.197 101.102 221.748 93.0188 214.821 86.0781H214.835Z" fill="black"/>
<path d="M162.278 145.296C177.121 145.296 178.068 167.554 163.253 168.488C162.654 168.529 162.041 168.543 161.427 168.543H120.466V180.167H160.633C170.542 180.167 180.298 176.906 187.824 170.453C198.194 161.561 203.364 148.502 201.845 134.843C200.925 126.551 197.399 118.69 191.824 112.474C183.964 103.694 173.232 98.8301 161.567 98.8301H120.606V110.454H161.567C162.096 110.454 162.473 110.468 162.988 110.495C177.971 111.29 177.274 133.701 162.264 133.701H45.2757C45.1364 135.624 45.0527 137.561 45.0527 139.512C45.0527 141.464 45.1224 143.401 45.2757 145.324H162.264L162.278 145.296Z" fill="black"/>
</svg>
