<svg viewBox="0 0 192 192" fill="none" xmlns="http://www.w3.org/2000/svg">
    <g clip-path="url(#clip0_3316_4539)">
        <rect width="192" height="192" rx="96" fill="#171717"/>
        <path fill-rule="evenodd" clip-rule="evenodd" d="M82.4045 51.9667C85.4173 51.0406 89.7838 50.2452 93.1242 50.0273C94.4451 49.9401 99.0517 49.9619 100.34 50.0599C102.589 50.2343 105.132 50.5829 106.857 50.9425L107.37 51.0623V60.3127V69.5631H94.4341H81.4984V60.9011V52.25L82.4045 51.9667ZM76.5042 54.6687C70.1291 57.8611 64.6164 62.6334 60.6866 68.3645L59.9006 69.5085L59.9816 69.5088L59.9661 69.5222L78.1416 69.5631L78.1007 53.8734L78.0871 53.8851L78.087 53.8733L76.5042 54.6687ZM56.6257 73.6435C53.733 80.0501 52.0737 87.5681 51.8663 95.3258L51.8008 97.7555H64.9657H78.1416V85.3345V72.9135H67.5529H56.9532L56.6257 73.6435ZM51.9974 101.672C52.3576 105.399 52.696 107.698 53.2636 110.258C54.4863 115.804 56.4512 120.805 59.1802 125.316L59.9553 126.602H69.0485H78.1417V113.854V101.106H65.0422H51.9428L51.9974 101.672ZM81.4984 113.2V107.153V101.106H94.4341H107.37V107.153V113.2H94.4341H81.4984ZM110.727 113.854V126.602H125.463H140.2V113.854V101.106H125.463H110.727V113.854ZM72.908 138.013C69.5614 136.228 66.5294 134.125 63.7364 131.635L61.8492 129.963L70.0018 129.952H78.1417V135.182V140.412L77.8397 140.309C77.2359 140.093 73.9774 138.581 72.908 138.013ZM81.4984 135.727V141.501H94.4341H107.37V135.727V129.952H94.4341H81.4984V135.727ZM110.727 141.501V135.727V129.952H125.463H140.2V135.727V141.501H125.463H110.727ZM110.727 78.9606V85.0076H125.463H140.2L140.134 84.6723C139.417 81.1399 138.39 77.6913 137.032 74.1948L136.535 72.9135H123.631H110.727V78.9606ZM110.727 51.9122V60.9011V69.5631H122.797H134.879L134.704 69.258C134.61 69.0946 134.109 68.4082 133.584 67.7217C130.561 63.7546 126.89 60.3653 122.722 57.6652C120.357 55.8663 113.448 52.8183 110.727 51.9122Z" fill="white"/>
        <path fill-rule="evenodd" clip-rule="evenodd" d="M82.4045 51.9667C85.4173 51.0406 89.7838 50.2452 93.1242 50.0273C94.4451 49.9401 99.0517 49.9619 100.34 50.0599C102.589 50.2343 105.132 50.5829 106.857 50.9425L107.37 51.0623V60.3127V69.5631H94.4341H81.4984V60.9011V52.25L82.4045 51.9667ZM76.5042 54.6687C70.1291 57.8611 64.6164 62.6334 60.6866 68.3645L59.9006 69.5085L59.9816 69.5088L59.9661 69.5222L78.1416 69.5631L78.1007 53.8734L78.0871 53.8851L78.087 53.8733L76.5042 54.6687ZM56.6257 73.6435C53.733 80.0501 52.0737 87.5681 51.8663 95.3258L51.8008 97.7555H64.9657H78.1416V85.3345V72.9135H67.5529H56.9532L56.6257 73.6435ZM51.9974 101.672C52.3576 105.399 52.696 107.698 53.2636 110.258C54.4863 115.804 56.4512 120.805 59.1802 125.316L59.9553 126.602H69.0485H78.1417V113.854V101.106H65.0422H51.9428L51.9974 101.672ZM81.4984 113.2V107.153V101.106H94.4341H107.37V107.153V113.2H94.4341H81.4984ZM110.727 113.854V126.602H125.463H140.2V113.854V101.106H125.463H110.727V113.854ZM72.908 138.013C69.5614 136.228 66.5294 134.125 63.7364 131.635L61.8492 129.963L70.0018 129.952H78.1417V135.182V140.412L77.8397 140.309C77.2359 140.093 73.9774 138.581 72.908 138.013ZM81.4984 135.727V141.501H94.4341H107.37V135.727V129.952H94.4341H81.4984V135.727ZM110.727 141.501V135.727V129.952H125.463H140.2V135.727V141.501H125.463H110.727ZM110.727 78.9606V85.0076H125.463H140.2L140.134 84.6723C139.417 81.1399 138.39 77.6913 137.032 74.1948L136.535 72.9135H123.631H110.727V78.9606ZM110.727 51.9122V60.9011V69.5631H122.797H134.879L134.704 69.258C134.61 69.0946 134.109 68.4082 133.584 67.7217C130.561 63.7546 126.89 60.3653 122.722 57.6652C120.357 55.8663 113.448 52.8183 110.727 51.9122Z" fill="url(#paint0_linear_3316_4539)"/>
        <path d="M95.9852 8.64665C144.222 8.64665 183.316 47.7561 183.316 95.9852C183.316 144.214 144.222 183.324 95.9852 183.324C47.7489 183.324 8.65477 144.229 8.65477 96C8.65477 47.7709 47.7489 8.64665 95.9852 8.64665ZM95.9852 0C83.0326 0 70.464 2.54226 58.6191 7.55289C47.1877 12.3861 36.9231 19.3035 28.1058 28.1275C19.2886 36.9367 12.3766 47.2092 7.53231 58.6346C2.54031 70.4739 0 83.0374 0 96C0 108.963 2.54031 121.526 7.54708 133.365C12.3766 144.806 19.3034 155.063 28.1206 163.873C36.9378 172.682 47.2025 179.599 58.6338 184.447C70.4788 189.458 83.0474 192 96 192C108.953 192 121.521 189.458 133.366 184.447C144.798 179.614 155.062 172.697 163.879 163.873C172.697 155.063 179.609 144.791 184.453 133.365C189.46 121.526 192 108.948 192 96C192 83.0522 189.46 70.4739 184.453 58.6346C179.623 47.1945 172.697 36.9367 163.879 28.1275C155.062 19.3182 144.798 12.4009 133.366 7.55289C121.536 2.54226 108.953 0 96 0L95.9852 0Z" fill="url(#paint1_linear_3316_4539)"/>
    </g>
    <defs>
        <linearGradient id="paint0_linear_3316_4539" x1="146.932" y1="159.964" x2="46.4023" y2="145.497" gradientUnits="userSpaceOnUse">
            <stop stop-color="#FCFCFC"/>
            <stop offset="0.472018" stop-color="#AB8EFD"/>
            <stop offset="1" stop-color="#C5C5FE"/>
        </linearGradient>
        <linearGradient id="paint1_linear_3316_4539" x1="206.622" y1="230.729" x2="-11.4065" y2="198.241" gradientUnits="userSpaceOnUse">
            <stop stop-color="#FCFCFC"/>
            <stop offset="0.472018" stop-color="#AB8EFD"/>
            <stop offset="1" stop-color="#C5C5FE"/>
        </linearGradient>
        <clipPath id="clip0_3316_4539">
            <rect width="192" height="192" rx="96" fill="white"/>
        </clipPath>
    </defs>
</svg>
