<svg xmlns="http://www.w3.org/2000/svg" viewBox="0 0 32 29" fill="none">
    <mask id="path-1-outside-1_2_189" maskUnits="userSpaceOnUse" x="-0.433594" y="-0.780937" width="32" height="30" fill="black">
        <rect fill="white" x="-0.433594" y="-0.780937" width="32" height="30"/>
        <path d="M30.5204 14.2986L24.6357 4.15353C23.942 2.9586 22.9433 1.96266 21.7464 1.2728C20.5496 0.582945 19.1869 0.219063 17.8063 0.219063H13.4587C13.4482 0.219063 13.4369 0.219063 13.435 0.219063C12.2533 0.222853 11.0868 0.536512 10.0624 1.12592C9.03048 1.71913 8.16816 2.57671 7.56927 3.60582L1.50552 14.02C0.894312 15.069 0.57023 16.2649 0.56644 17.4788C0.562649 18.6927 0.881046 19.8905 1.48562 20.9423L2.31952 22.3931L3.68218 24.8939C4.20052 26.0537 5.03821 27.0317 6.10332 27.7234C7.17032 28.4152 8.40411 28.7809 9.67485 28.7809C9.68622 28.7809 9.69854 28.7809 9.71086 28.7809L22.1103 28.7677C23.3697 28.7658 24.6054 28.4237 25.6856 27.7765C26.7659 27.1293 27.651 26.2015 28.247 25.0919L28.8507 23.9671L30.4824 21.056C31.7371 18.9467 31.7513 16.4213 30.5204 14.2996V14.2986ZM9.70423 27.4552C9.69475 27.4552 9.68433 27.4552 9.67485 27.4552C8.66091 27.4552 7.67635 27.1634 6.8254 26.6119C5.96591 26.0547 5.29311 25.2644 4.87901 24.3215L4.8629 24.2855C4.53123 23.5388 4.37867 22.7143 4.42131 21.8985C4.4649 21.0693 4.70938 20.2534 5.12918 19.5351L12.3414 7.03427C12.4362 6.87033 12.5717 6.73482 12.7356 6.64006C12.8986 6.54625 13.0834 6.49697 13.272 6.49697H13.2739C13.4624 6.49697 13.6482 6.54814 13.8112 6.6429C13.9742 6.73766 14.1097 6.87507 14.2035 7.039L15.1748 8.73996L8.46381 20.4278C8.23733 20.821 8.11888 21.2692 8.11888 21.7231C8.11888 22.1771 8.24017 22.6243 8.4676 23.0176C8.69503 23.4108 9.0229 23.7378 9.41616 23.9652C9.80941 24.1917 10.2567 24.312 10.7096 24.312H24.756C24.7665 24.312 24.7778 24.312 24.7883 24.312C25.2829 24.312 25.7785 24.2561 26.2599 24.1462C26.674 24.0524 27.0767 23.9197 27.4634 23.7482L27.0786 24.4655C26.5963 25.3639 25.879 26.1163 25.0043 26.6403C24.1297 27.1643 23.129 27.442 22.1094 27.4429L9.70518 27.4571L9.70423 27.4552ZM20.6216 18.2776H11.228L15.9376 10.0742L20.6216 18.2776ZM25.0991 16.6004C25.1796 16.7605 25.2223 16.9396 25.2223 17.1187C25.2223 17.3215 25.1692 17.5224 25.0678 17.6977C24.9664 17.874 24.8205 18.0199 24.6442 18.1222C24.4689 18.2236 24.269 18.2776 24.0662 18.2776H22.1492L15.3558 6.37947C15.1463 6.01274 14.8431 5.70761 14.4792 5.49535C14.1144 5.28308 13.6993 5.17032 13.2777 5.16937H13.0881V5.17695C12.7318 5.20443 12.385 5.31151 12.0742 5.49061C11.7094 5.70098 11.4042 6.00611 11.1939 6.37094L3.98825 18.8576L3.98162 18.869C3.56373 19.5834 3.28418 20.3775 3.16099 21.1963L2.63602 20.2818C2.14705 19.4318 1.89025 18.4634 1.89309 17.4826C1.89593 16.5018 2.15842 15.5353 2.65213 14.6881L8.71587 4.27388C9.19821 3.44472 9.8928 2.75486 10.7239 2.27632C11.5549 1.79873 12.5006 1.54572 13.4596 1.54572C14.2584 1.54572 15.0582 1.73713 15.7708 2.09722C16.473 2.45258 17.0927 2.97376 17.5637 3.60582L25.0669 16.5407C25.0782 16.5606 25.0896 16.5805 25.0991 16.6004ZM27.4908 22.2405C27.4672 22.2548 27.4435 22.269 27.4188 22.2822C27.1014 22.4642 26.764 22.6139 26.4163 22.7267C25.8875 22.8972 25.3303 22.9835 24.7579 22.9835H10.7106C10.4888 22.9835 10.2709 22.9247 10.0785 22.8148C9.88712 22.7039 9.72697 22.5438 9.6161 22.3524C9.50523 22.16 9.44648 21.942 9.44648 21.7203C9.44648 21.4986 9.50428 21.2797 9.61515 21.0883L10.4671 19.6043H21.7398C23.0608 19.6308 23.0731 19.6308 23.0778 19.6308L24.0671 19.6052C24.503 19.6052 24.9323 19.4896 25.3094 19.2717C25.6866 19.0537 26.0012 18.7382 26.2182 18.361C26.4352 17.9829 26.5499 17.5537 26.5489 17.1178C26.5489 16.7321 26.4561 16.3474 26.2826 16.0034C26.2608 15.9598 26.2381 15.9172 26.2135 15.8755L18.6914 2.90838C18.679 2.88753 18.6667 2.86763 18.6516 2.84773C18.2867 2.35213 17.8594 1.91528 17.3742 1.54572H17.8053C18.9548 1.54572 20.0881 1.84895 21.0841 2.42225C22.08 2.99556 22.9111 3.82471 23.4881 4.8197L29.3728 14.9648C30.3413 16.6345 30.346 18.6292 29.3851 20.3027C29.3775 20.3141 29.37 20.3264 29.3624 20.3396C29.3235 20.4079 29.2828 20.4751 29.2411 20.5405C28.7938 21.2351 28.1883 21.8226 27.4899 22.2405H27.4908Z"/>
    </mask>
    <path d="M30.5204 14.2986L24.6357 4.15353C23.942 2.9586 22.9433 1.96266 21.7464 1.2728C20.5496 0.582945 19.1869 0.219063 17.8063 0.219063H13.4587C13.4482 0.219063 13.4369 0.219063 13.435 0.219063C12.2533 0.222853 11.0868 0.536512 10.0624 1.12592C9.03048 1.71913 8.16816 2.57671 7.56927 3.60582L1.50552 14.02C0.894312 15.069 0.57023 16.2649 0.56644 17.4788C0.562649 18.6927 0.881046 19.8905 1.48562 20.9423L2.31952 22.3931L3.68218 24.8939C4.20052 26.0537 5.03821 27.0317 6.10332 27.7234C7.17032 28.4152 8.40411 28.7809 9.67485 28.7809C9.68622 28.7809 9.69854 28.7809 9.71086 28.7809L22.1103 28.7677C23.3697 28.7658 24.6054 28.4237 25.6856 27.7765C26.7659 27.1293 27.651 26.2015 28.247 25.0919L28.8507 23.9671L30.4824 21.056C31.7371 18.9467 31.7513 16.4213 30.5204 14.2996V14.2986ZM9.70423 27.4552C9.69475 27.4552 9.68433 27.4552 9.67485 27.4552C8.66091 27.4552 7.67635 27.1634 6.8254 26.6119C5.96591 26.0547 5.29311 25.2644 4.87901 24.3215L4.8629 24.2855C4.53123 23.5388 4.37867 22.7143 4.42131 21.8985C4.4649 21.0693 4.70938 20.2534 5.12918 19.5351L12.3414 7.03427C12.4362 6.87033 12.5717 6.73482 12.7356 6.64006C12.8986 6.54625 13.0834 6.49697 13.272 6.49697H13.2739C13.4624 6.49697 13.6482 6.54814 13.8112 6.6429C13.9742 6.73766 14.1097 6.87507 14.2035 7.039L15.1748 8.73996L8.46381 20.4278C8.23733 20.821 8.11888 21.2692 8.11888 21.7231C8.11888 22.1771 8.24017 22.6243 8.4676 23.0176C8.69503 23.4108 9.0229 23.7378 9.41616 23.9652C9.80941 24.1917 10.2567 24.312 10.7096 24.312H24.756C24.7665 24.312 24.7778 24.312 24.7883 24.312C25.2829 24.312 25.7785 24.2561 26.2599 24.1462C26.674 24.0524 27.0767 23.9197 27.4634 23.7482L27.0786 24.4655C26.5963 25.3639 25.879 26.1163 25.0043 26.6403C24.1297 27.1643 23.129 27.442 22.1094 27.4429L9.70518 27.4571L9.70423 27.4552ZM20.6216 18.2776H11.228L15.9376 10.0742L20.6216 18.2776ZM25.0991 16.6004C25.1796 16.7605 25.2223 16.9396 25.2223 17.1187C25.2223 17.3215 25.1692 17.5224 25.0678 17.6977C24.9664 17.874 24.8205 18.0199 24.6442 18.1222C24.4689 18.2236 24.269 18.2776 24.0662 18.2776H22.1492L15.3558 6.37947C15.1463 6.01274 14.8431 5.70761 14.4792 5.49535C14.1144 5.28308 13.6993 5.17032 13.2777 5.16937H13.0881V5.17695C12.7318 5.20443 12.385 5.31151 12.0742 5.49061C11.7094 5.70098 11.4042 6.00611 11.1939 6.37094L3.98825 18.8576L3.98162 18.869C3.56373 19.5834 3.28418 20.3775 3.16099 21.1963L2.63602 20.2818C2.14705 19.4318 1.89025 18.4634 1.89309 17.4826C1.89593 16.5018 2.15842 15.5353 2.65213 14.6881L8.71587 4.27388C9.19821 3.44472 9.8928 2.75486 10.7239 2.27632C11.5549 1.79873 12.5006 1.54572 13.4596 1.54572C14.2584 1.54572 15.0582 1.73713 15.7708 2.09722C16.473 2.45258 17.0927 2.97376 17.5637 3.60582L25.0669 16.5407C25.0782 16.5606 25.0896 16.5805 25.0991 16.6004ZM27.4908 22.2405C27.4672 22.2548 27.4435 22.269 27.4188 22.2822C27.1014 22.4642 26.764 22.6139 26.4163 22.7267C25.8875 22.8972 25.3303 22.9835 24.7579 22.9835H10.7106C10.4888 22.9835 10.2709 22.9247 10.0785 22.8148C9.88712 22.7039 9.72697 22.5438 9.6161 22.3524C9.50523 22.16 9.44648 21.942 9.44648 21.7203C9.44648 21.4986 9.50428 21.2797 9.61515 21.0883L10.4671 19.6043H21.7398C23.0608 19.6308 23.0731 19.6308 23.0778 19.6308L24.0671 19.6052C24.503 19.6052 24.9323 19.4896 25.3094 19.2717C25.6866 19.0537 26.0012 18.7382 26.2182 18.361C26.4352 17.9829 26.5499 17.5537 26.5489 17.1178C26.5489 16.7321 26.4561 16.3474 26.2826 16.0034C26.2608 15.9598 26.2381 15.9172 26.2135 15.8755L18.6914 2.90838C18.679 2.88753 18.6667 2.86763 18.6516 2.84773C18.2867 2.35213 17.8594 1.91528 17.3742 1.54572H17.8053C18.9548 1.54572 20.0881 1.84895 21.0841 2.42225C22.08 2.99556 22.9111 3.82471 23.4881 4.8197L29.3728 14.9648C30.3413 16.6345 30.346 18.6292 29.3851 20.3027C29.3775 20.3141 29.37 20.3264 29.3624 20.3396C29.3235 20.4079 29.2828 20.4751 29.2411 20.5405C28.7938 21.2351 28.1883 21.8226 27.4899 22.2405H27.4908Z" fill="white"/>
    <path d="M30.5204 14.2986L24.6357 4.15353C23.942 2.9586 22.9433 1.96266 21.7464 1.2728C20.5496 0.582945 19.1869 0.219063 17.8063 0.219063H13.4587C13.4482 0.219063 13.4369 0.219063 13.435 0.219063C12.2533 0.222853 11.0868 0.536512 10.0624 1.12592C9.03048 1.71913 8.16816 2.57671 7.56927 3.60582L1.50552 14.02C0.894312 15.069 0.57023 16.2649 0.56644 17.4788C0.562649 18.6927 0.881046 19.8905 1.48562 20.9423L2.31952 22.3931L3.68218 24.8939C4.20052 26.0537 5.03821 27.0317 6.10332 27.7234C7.17032 28.4152 8.40411 28.7809 9.67485 28.7809C9.68622 28.7809 9.69854 28.7809 9.71086 28.7809L22.1103 28.7677C23.3697 28.7658 24.6054 28.4237 25.6856 27.7765C26.7659 27.1293 27.651 26.2015 28.247 25.0919L28.8507 23.9671L30.4824 21.056C31.7371 18.9467 31.7513 16.4213 30.5204 14.2996V14.2986ZM9.70423 27.4552C9.69475 27.4552 9.68433 27.4552 9.67485 27.4552C8.66091 27.4552 7.67635 27.1634 6.8254 26.6119C5.96591 26.0547 5.29311 25.2644 4.87901 24.3215L4.8629 24.2855C4.53123 23.5388 4.37867 22.7143 4.42131 21.8985C4.4649 21.0693 4.70938 20.2534 5.12918 19.5351L12.3414 7.03427C12.4362 6.87033 12.5717 6.73482 12.7356 6.64006C12.8986 6.54625 13.0834 6.49697 13.272 6.49697H13.2739C13.4624 6.49697 13.6482 6.54814 13.8112 6.6429C13.9742 6.73766 14.1097 6.87507 14.2035 7.039L15.1748 8.73996L8.46381 20.4278C8.23733 20.821 8.11888 21.2692 8.11888 21.7231C8.11888 22.1771 8.24017 22.6243 8.4676 23.0176C8.69503 23.4108 9.0229 23.7378 9.41616 23.9652C9.80941 24.1917 10.2567 24.312 10.7096 24.312H24.756C24.7665 24.312 24.7778 24.312 24.7883 24.312C25.2829 24.312 25.7785 24.2561 26.2599 24.1462C26.674 24.0524 27.0767 23.9197 27.4634 23.7482L27.0786 24.4655C26.5963 25.3639 25.879 26.1163 25.0043 26.6403C24.1297 27.1643 23.129 27.442 22.1094 27.4429L9.70518 27.4571L9.70423 27.4552ZM20.6216 18.2776H11.228L15.9376 10.0742L20.6216 18.2776ZM25.0991 16.6004C25.1796 16.7605 25.2223 16.9396 25.2223 17.1187C25.2223 17.3215 25.1692 17.5224 25.0678 17.6977C24.9664 17.874 24.8205 18.0199 24.6442 18.1222C24.4689 18.2236 24.269 18.2776 24.0662 18.2776H22.1492L15.3558 6.37947C15.1463 6.01274 14.8431 5.70761 14.4792 5.49535C14.1144 5.28308 13.6993 5.17032 13.2777 5.16937H13.0881V5.17695C12.7318 5.20443 12.385 5.31151 12.0742 5.49061C11.7094 5.70098 11.4042 6.00611 11.1939 6.37094L3.98825 18.8576L3.98162 18.869C3.56373 19.5834 3.28418 20.3775 3.16099 21.1963L2.63602 20.2818C2.14705 19.4318 1.89025 18.4634 1.89309 17.4826C1.89593 16.5018 2.15842 15.5353 2.65213 14.6881L8.71587 4.27388C9.19821 3.44472 9.8928 2.75486 10.7239 2.27632C11.5549 1.79873 12.5006 1.54572 13.4596 1.54572C14.2584 1.54572 15.0582 1.73713 15.7708 2.09722C16.473 2.45258 17.0927 2.97376 17.5637 3.60582L25.0669 16.5407C25.0782 16.5606 25.0896 16.5805 25.0991 16.6004ZM27.4908 22.2405C27.4672 22.2548 27.4435 22.269 27.4188 22.2822C27.1014 22.4642 26.764 22.6139 26.4163 22.7267C25.8875 22.8972 25.3303 22.9835 24.7579 22.9835H10.7106C10.4888 22.9835 10.2709 22.9247 10.0785 22.8148C9.88712 22.7039 9.72697 22.5438 9.6161 22.3524C9.50523 22.16 9.44648 21.942 9.44648 21.7203C9.44648 21.4986 9.50428 21.2797 9.61515 21.0883L10.4671 19.6043H21.7398C23.0608 19.6308 23.0731 19.6308 23.0778 19.6308L24.0671 19.6052C24.503 19.6052 24.9323 19.4896 25.3094 19.2717C25.6866 19.0537 26.0012 18.7382 26.2182 18.361C26.4352 17.9829 26.5499 17.5537 26.5489 17.1178C26.5489 16.7321 26.4561 16.3474 26.2826 16.0034C26.2608 15.9598 26.2381 15.9172 26.2135 15.8755L18.6914 2.90838C18.679 2.88753 18.6667 2.86763 18.6516 2.84773C18.2867 2.35213 17.8594 1.91528 17.3742 1.54572H17.8053C18.9548 1.54572 20.0881 1.84895 21.0841 2.42225C22.08 2.99556 22.9111 3.82471 23.4881 4.8197L29.3728 14.9648C30.3413 16.6345 30.346 18.6292 29.3851 20.3027C29.3775 20.3141 29.37 20.3264 29.3624 20.3396C29.3235 20.4079 29.2828 20.4751 29.2411 20.5405C28.7938 21.2351 28.1883 21.8226 27.4899 22.2405H27.4908Z" stroke="white" stroke-width="0.215612" mask="url(#path-1-outside-1_2_189)"/>
</svg>
