<svg width="100" height="100" viewBox="0 0 100 100" fill="none" xmlns="http://www.w3.org/2000/svg">
<rect width="100" height="100" rx="50" fill="#64C0E0"/>
<path d="M50 26.6016C51.0209 26.6016 51.3148 27.2667 51.4386 28.365L51.4695 28.8291L51.5159 29.6025L51.5778 31.0102L51.6552 33.2995L51.7016 35.8209L51.748 39.0075L51.7944 42.5034L51.8098 48.165L56.8836 48.1959L61.5242 48.2423L64.0611 48.2733L66.6908 48.3352L68.547 48.397L70.063 48.4434L71.1458 48.5053L71.6098 48.5517C72.7081 48.6755 73.3887 48.9694 73.3887 49.9903C73.3887 51.0112 72.7081 51.3052 71.6098 51.4289L71.1458 51.4753L70.3723 51.5217L68.9802 51.5836L66.6908 51.6455L64.1694 51.7073L60.9828 51.7538L58.3841 51.7692L54.7025 51.8002H51.8098V55.6364L51.7634 60.1223L51.7325 62.6128L51.6861 64.9022L51.6242 67.6711L51.5778 68.9705L51.5005 70.9041L51.4541 71.3836C51.3458 72.6211 51.0983 73.3945 50 73.3945C48.9636 73.3945 48.6852 72.7139 48.5614 71.6156L48.515 71.1516L48.4686 70.3781L48.4222 69.3572L48.3603 67.1916L48.3139 65.6138L48.2675 63.247L48.2211 59.7202L48.1902 54.8939V51.8002H44.3384L39.0017 51.7538L35.8306 51.7073L33.3092 51.6455L31.0198 51.5836L29.0862 51.4908L28.6067 51.4598C27.3692 51.3516 26.5958 51.0886 26.5958 49.9903C26.5958 48.9694 27.2764 48.6755 28.3747 48.5517L28.8387 48.5053L29.9216 48.4434L31.4375 48.397L33.2938 48.3352L35.8306 48.2733L39.0017 48.2269L41.6005 48.2114L46.2411 48.1805H48.1747L48.1902 44.0967L48.2211 40.2605L48.2675 36.7336L48.3294 33.8255L48.3912 31.4278L48.4531 29.9119L48.515 28.8291L48.5614 28.365C48.6852 27.2822 48.9636 26.6016 50 26.6016ZM43.9362 34.0884H44.1373C45.6842 34.0575 46.1483 34.8155 46.2256 35.4652C46.2537 35.674 46.238 35.8864 46.1794 36.0888C46.1208 36.2913 46.0206 36.4792 45.8853 36.6408C45.4831 37.1203 44.8953 37.2441 44.4158 37.2905L44.0755 37.3059H44.0291L42.2037 37.3678L40.4403 37.4606L38.7233 37.5534L37.0527 37.6772L35.4439 37.8009L33.897 37.9556L32.3811 38.1103L30.9116 38.2805L28.1272 38.6672L26.8123 38.8837L25.5439 39.1003L23.7031 39.4406L22.543 39.6881L21.4292 39.9511L20.3464 40.1986L19.31 40.477L18.7995 40.6162L17.825 40.8947L16.8969 41.1731L15.9997 41.467C15.6903 41.5598 15.4119 41.6681 15.1334 41.7764L14.3136 42.0703L13.5247 42.3797L12.7667 42.6736L12.4109 42.8283L11.6994 43.1377L11.3745 43.2923L10.7248 43.6017L10.1061 43.9111L9.51828 44.2205L9.22437 44.3752L8.68297 44.7L8.1725 45.0094L7.70844 45.3187L7.24438 45.6281L6.81125 45.9375C4.38266 48.0722 4.05781 49.65 4.15062 50.5781L4.18156 50.8102L4.22797 51.0112L4.28984 51.1659L4.35172 51.3825C4.955 52.9758 6.79578 54.5072 9.48734 55.8684L10.2608 56.2706C10.9414 56.58 11.6684 56.9048 12.4264 57.1988L13.3545 57.57L14.8241 58.0959L15.845 58.4208L16.8814 58.7456L17.9642 59.055L18.5056 59.2097L19.6194 59.5191L20.1917 59.6738L21.3364 59.9522L22.512 60.2152L23.6877 60.4781L24.8942 60.7256L26.1008 60.9577L26.7195 61.0659L27.957 61.267L28.5758 61.3753L29.8133 61.5609L31.0508 61.7466L32.2883 61.9013L32.9225 61.9786L34.16 62.1178L34.7942 62.1797L36.0317 62.288L37.2692 62.3963C37.4858 62.3963 37.6869 62.4272 37.888 62.4427L39.1255 62.52C39.3266 62.52 39.5277 62.52 39.7288 62.5509L40.9353 62.5973L42.1264 62.6283H44.06C44.6787 62.6438 45.3439 62.7366 45.808 63.247C46.1173 63.6028 46.2411 64.0359 46.1792 64.4845C46.0245 65.722 44.9108 65.8922 44.1373 65.8922L43.7352 65.8613H43.5805L43.2402 65.8303C34.2159 65.6641 25.2433 64.4283 16.5102 62.1488C6.48641 59.3334 1.11875 55.4198 0.530937 50.4853L0.5 50.0677V49.9903C0.886719 44.8547 6.34719 40.7709 16.7886 37.8473C25.6576 35.5285 34.7707 34.2719 43.9362 34.1039V34.0884ZM55.7698 34.0884H56.0637L56.7598 34.1348C65.784 34.3013 74.7567 35.5371 83.4898 37.8164C93.5136 40.6317 98.8812 44.5608 99.4691 49.4953L99.5 49.913V49.9903C99.1133 55.1259 93.6528 59.2097 83.2114 62.1333C74.3424 64.4521 65.2293 65.7087 56.0637 65.8767H55.7544C54.2694 65.8767 53.8517 65.1342 53.7744 64.5C53.7475 64.2936 53.7639 64.0839 53.8225 63.8841C53.8811 63.6844 53.9806 63.499 54.1147 63.3398C54.5169 62.8448 55.1047 62.7211 55.5842 62.6902L55.9245 62.6592L56.8991 62.6283L58.6934 62.5664L60.4259 62.4736L62.1275 62.3653L63.7517 62.2416L65.345 62.0869L66.1184 62.025L67.6189 61.8703C69.1194 61.7002 70.527 61.5145 71.8728 61.3134L73.1877 61.0969L74.4561 60.8803L75.6936 60.6483L76.8847 60.4008L78.0139 60.1533L79.1277 59.9058L80.1795 59.6273L81.2005 59.3644L82.175 59.0859L83.1031 58.792L83.5672 58.6528L84.4489 58.3589C84.5884 58.308 84.7276 58.2564 84.8666 58.2042L85.6864 57.9103L86.4753 57.6009L86.862 57.4463L87.5891 57.1369C87.7079 57.0859 87.8265 57.0343 87.9448 56.9822L88.6255 56.6728L89.2752 56.3634L89.8939 56.0541L90.4817 55.7447L90.7756 55.59L91.317 55.2806L91.5645 55.1259L92.075 54.8166L92.5391 54.5072L92.9722 54.1978L93.1887 54.0431C95.7256 51.8002 95.9731 50.2069 95.8184 49.2787L95.7875 49.0622L95.7411 48.8766L95.6483 48.5827C94.7202 46.1541 90.9148 43.8956 85.6709 42.0548L84.6655 41.7145L83.6445 41.3897L82.5772 41.0648C82.3969 41.0126 82.2165 40.961 82.0358 40.9102L80.9375 40.6008L79.8083 40.3069L79.2359 40.1522L78.0758 39.8892L77.488 39.75L76.3123 39.5025L75.1058 39.255L73.8992 39.023L73.2805 38.9147L72.043 38.6981L70.8055 38.497L70.1867 38.4042L68.9492 38.2341L67.7117 38.0794L67.0775 38.002L65.84 37.8473C65.6234 37.8473 65.4069 37.8164 65.2058 37.8009L63.9683 37.6772L63.3495 37.6308L62.112 37.538L60.8745 37.4606C60.4725 37.4373 60.0703 37.4167 59.668 37.3988L58.4614 37.3678L57.2858 37.3369H55.94C55.3213 37.3369 54.6561 37.2441 54.192 36.7181C54.0446 36.5508 53.9351 36.3536 53.871 36.14C53.8069 35.9264 53.7898 35.7015 53.8208 35.4806C53.9755 34.3205 54.9809 34.0884 55.7698 34.0884Z" fill="black"/>
</svg>
