<svg width="562" height="86" viewBox="0 0 562 86" fill="none" xmlns="http://www.w3.org/2000/svg">
<path fill-rule="evenodd" clip-rule="evenodd" d="M83.2781 3.45879C88.361 5.61247 92.9172 8.69485 96.8351 12.6259L96.843 12.6179C100.761 16.549 103.833 21.1287 105.979 26.2207C108.206 31.5048 109.331 37.1011 109.331 42.8817C109.331 48.6622 108.206 54.2666 105.979 59.5428C103.833 64.6428 100.761 69.2224 96.843 73.1454C92.9252 77.0685 88.3689 80.1589 83.2861 82.3126C78.0197 84.5463 72.4341 85.6752 66.681 85.6752H43.2775C37.5323 85.6752 31.9547 84.5383 26.7043 82.3126C21.6214 80.1589 17.0652 77.0765 13.1474 73.1454C9.23746 69.2144 6.15741 64.6348 4.01096 59.5428C3.18908 57.5892 2.51084 55.5556 1.9842 53.498H7.64158C8.03257 54.835 8.50335 56.1481 9.03797 57.4131C10.9131 61.8566 13.5942 65.8517 17.0094 69.2783C20.4245 72.705 24.4062 75.3951 28.8348 77.2766C33.415 79.2221 38.2904 80.2069 43.3094 80.2069H66.681C71.7 80.2069 76.5754 79.2221 81.1556 77.2766C85.5841 75.3951 89.5659 72.705 92.981 69.2783C96.3962 65.8517 99.0773 61.8566 100.952 57.4131C102.891 52.8175 103.873 47.9256 103.873 42.8897C103.873 37.8537 102.891 32.9619 100.952 28.3663C99.0773 23.9228 96.3962 19.9277 92.981 16.501C89.5659 13.0744 85.5841 10.3843 81.1556 8.50278C76.5754 6.55725 71.7 5.57246 66.681 5.57246H43.3094C38.2904 5.57246 33.415 6.55725 28.8348 8.50278C24.3983 10.3843 20.4245 13.0744 17.0094 16.501C13.5942 19.9357 10.9131 23.9228 9.03797 28.3663C8.49537 29.6313 8.02459 30.9523 7.6336 32.2894H1.97623C2.50287 30.2238 3.1811 28.1901 4.01096 26.2286C6.15741 21.1286 9.22948 16.557 13.1474 12.6259C17.0652 8.69485 21.6294 5.61247 26.7043 3.45879C31.9547 1.23304 37.5323 0.0961914 43.2775 0.0961914H66.673C72.4341 0.0961914 78.0197 1.22504 83.2781 3.45879ZM67.7738 60.1431C72.4897 59.8549 74.5244 56.1078 74.4207 52.7532V52.7612C74.3169 49.3265 72.0029 45.6357 67.1754 45.6357H0.75504C0.699185 44.723 0.667267 43.8102 0.667267 42.8975C0.667267 41.9848 0.699185 41.0641 0.75504 40.1593H67.1754C72.0269 40.1593 74.3329 36.4765 74.4207 33.0498C74.5084 29.6551 72.4258 25.8841 67.6222 25.6279C67.312 25.604 67.089 25.604 66.7793 25.604H66.7764H43.9235V20.1276H66.7764C73.2637 20.1276 79.2562 22.8418 83.6528 27.7656C86.7488 31.2324 88.7277 35.6759 89.2384 40.2795C90.0762 47.9415 87.2276 55.2112 81.4106 60.2151C77.3411 63.7219 71.9471 65.6514 66.2338 65.6514H43.8357V60.175H66.6886C67.0557 60.175 67.4148 60.1671 67.7738 60.1431Z" fill="#00F370"/>
<path d="M165.018 19.2505H163.666C155.09 19.2505 148.498 21.7725 144.075 26.7524C140.451 30.8276 138.459 36.544 138.459 42.8369C138.459 56.96 148.586 66.4474 163.666 66.4474H165.818C176.818 66.4474 184.866 61.956 188.602 53.7735H181.402C178.122 58.5933 173.154 60.843 165.818 60.843H163.666C153.434 60.843 146.69 55.5509 145.147 46.3197C145.115 46.1435 145.163 45.9674 145.283 45.8313C145.395 45.6952 145.562 45.6151 145.738 45.6151H190.05V42.8129C190.05 28.2735 180.458 19.2505 165.026 19.2505H165.018ZM183.258 39.8025C183.146 39.9386 182.978 40.0107 182.802 40.0107H145.714C145.538 40.0107 145.371 39.9306 145.259 39.8025C145.147 39.6664 145.099 39.4903 145.123 39.3222C146.642 29.5865 152.706 24.8549 163.666 24.8549H165.018C175.666 24.8549 182.018 29.8588 183.402 39.3302C183.426 39.5063 183.378 39.6744 183.266 39.8105L183.258 39.8025Z" fill="white"/>
<path d="M326.245 19.2505H324.893C316.318 19.2505 309.726 21.7725 305.302 26.7524C301.678 30.8276 299.686 36.544 299.686 42.8369C299.686 56.96 309.814 66.4474 324.893 66.4474H327.045C338.045 66.4474 346.093 61.956 349.829 53.7735H342.629C339.349 58.5933 334.381 60.843 327.045 60.843H324.893C314.662 60.843 307.918 55.5509 306.374 46.3197C306.342 46.1435 306.39 45.9674 306.51 45.8313C306.622 45.6952 306.79 45.6151 306.966 45.6151H351.277V42.8129C351.277 28.2735 341.685 19.2505 326.253 19.2505H326.245ZM344.485 39.8025C344.373 39.9386 344.205 40.0107 344.029 40.0107H306.942C306.766 40.0107 306.598 39.9306 306.486 39.8025C306.374 39.6664 306.326 39.4903 306.35 39.3222C307.87 29.5865 313.942 24.8549 324.893 24.8549H326.245C336.885 24.8549 343.245 29.8588 344.629 39.3302C344.653 39.5063 344.605 39.6744 344.493 39.8105L344.485 39.8025Z" fill="white"/>
<path d="M287.546 42.2378C283.85 40.1722 279.906 39.948 272.378 39.948H270.05C260.371 39.948 256.235 37.7543 256.235 32.6142C256.235 29.8361 258.131 27.4102 261.307 26.1292C264.211 24.9523 267.227 24.7921 270.05 24.7921H272.41C278.346 24.7921 280.85 26.1212 283.162 28.4109C285.106 30.3405 285.594 32.5022 285.698 33.7512H292.106C291.946 30.3165 290.434 26.9458 287.906 24.4318C285.498 22.038 280.906 19.1797 272.714 19.1797H270.05C266.907 19.1797 262.275 19.3639 258.403 20.9331C253.251 23.0227 250.051 27.2981 249.843 32.3581C249.643 37.2099 252.067 41.3331 256.315 43.3907C260.123 45.2402 263.219 45.5524 268.715 45.5524H272.386C279.202 45.5524 281.554 45.7606 284.01 47.1376C286.522 48.5467 287.762 51.0447 287.33 53.8148C286.818 57.0734 284.218 59.4833 280.37 60.2519C280.17 60.2919 279.978 60.316 279.738 60.356C277.154 60.7403 275.474 60.8684 273.018 60.8684C272.162 60.8684 271.314 60.8523 270.458 60.8203C269.418 60.7803 268.347 60.7243 267.187 60.6362C258.923 60.0357 256.347 55.1359 256.067 51.9254H249.651C249.955 58.3704 255.091 65.4319 265.979 66.2246C267.443 66.3286 268.954 66.3927 269.97 66.4247C270.81 66.4487 271.642 66.4648 272.386 66.4648H272.594C278.466 66.4648 282.106 65.7682 282.25 65.7442C288.466 64.5032 292.778 60.268 293.514 54.6876C294.202 49.4515 291.914 44.6797 287.546 42.2298V42.2378Z" fill="white"/>
<path d="M220.974 19.3017H219.014C208.559 19.3017 201.455 24.4257 198.935 33.7611H205.639C207.743 27.7243 212.263 24.9061 219.822 24.9061H220.862C230.79 24.9061 236.814 30.3423 236.982 39.4375C236.982 39.5976 236.926 39.7578 236.814 39.8698C236.702 39.9819 236.55 40.046 236.39 40.046L211.639 40.078C204.055 40.078 199.439 42.7921 197.535 48.3805C195.831 53.3844 197.663 58.9568 202.207 62.5756C202.463 62.7758 202.719 62.9839 202.991 63.1681L203.071 63.2241C203.407 63.4563 203.759 63.6725 204.119 63.8806C204.255 63.9607 204.399 64.0328 204.543 64.1129C204.711 64.2009 204.887 64.289 205.071 64.377C206.111 64.8734 207.247 65.2818 208.447 65.586C211.471 66.3546 214.551 66.4506 216.903 66.4506C223.886 66.4506 229.966 64.7132 234.486 61.4147C234.726 61.2385 235.014 61.1425 235.31 61.1425C236.078 61.1425 236.702 61.7669 236.71 62.5356V65.5619L242.614 65.5539V39.7898C242.614 27.332 234.126 19.2856 220.998 19.2856L220.974 19.3017ZM224.542 60.0216C221.342 60.7662 218.942 60.8543 217.415 60.8543C213.199 60.8543 210.231 60.3819 208.111 59.3891C205.111 58.1962 203.247 55.7063 203.247 52.8961C203.247 50.7104 203.999 48.957 205.463 47.7C205.567 47.6039 205.679 47.5078 205.799 47.4277C207.327 46.2748 209.487 45.6664 212.031 45.6664L213.447 45.6503H236.366C236.526 45.6503 236.686 45.7144 236.798 45.8345C236.91 45.9466 236.974 46.1067 236.966 46.2668C236.79 53.4004 232.494 58.1561 224.542 60.0216Z" fill="white"/>
<path d="M401.338 0.0961914H394.938V65.5876H401.338V0.0961914Z" fill="white"/>
<path d="M435.456 19.2856H434.312C415.728 19.2856 409.105 31.4392 409.105 42.8161C409.105 54.193 415.728 66.3385 434.312 66.3385H435.456C454.04 66.3385 460.663 54.185 460.663 42.8081C460.663 31.4312 454.04 19.2856 435.456 19.2856ZM435.456 60.7341H434.312C417.968 60.7341 415.512 49.5013 415.504 42.8081C415.528 26.6354 428.664 24.8821 434.312 24.8821H435.456C451.8 24.8821 454.256 36.1148 454.264 42.8081C454.256 49.5013 451.792 60.7341 435.456 60.7341Z" fill="white"/>
<path d="M529.882 56.3123C529.57 58.7862 527.466 60.6517 524.978 60.6517H521.906C519.482 60.6517 517.426 58.9143 517.026 56.5205L512.587 29.3152C512.011 25.8725 509.947 21.7653 503.387 21.7653C496.827 21.7653 494.723 25.8725 494.147 29.3072L489.707 56.5205C489.307 58.9143 487.259 60.6517 484.827 60.6517H481.755C479.267 60.6517 477.155 58.7863 476.843 56.3044L473.155 20.116H466.723L470.491 57.0168C471.147 62.285 475.651 66.2641 480.955 66.2641H485.163C490.331 66.2641 494.707 62.5572 495.563 57.4652L500.003 29.4513C500.291 27.746 501.643 26.601 503.363 26.601C505.083 26.601 506.427 27.746 506.715 29.4593L511.147 57.4652C512.003 62.5652 516.378 66.2721 521.546 66.2721H525.754C531.058 66.2721 535.562 62.301 536.218 57.0409L539.986 20.124H533.554L529.858 56.3283L529.882 56.3123Z" fill="white"/>
<path d="M364.342 12.6421V19.4793C364.342 19.8076 364.07 20.0798 363.742 20.0798H355.174V25.6842H363.83C364.158 25.6842 364.43 25.9564 364.43 26.2847V65.5795H370.83V27.2855C370.83 26.4048 371.55 25.6842 372.43 25.6842H388.533V20.0798H371.518C371.19 20.0798 370.918 19.8076 370.918 19.4793V12.4739C370.918 8.64686 374.021 5.5405 377.845 5.5405H388.533V0.0961914H376.869C369.95 0.0961914 364.342 5.70862 364.342 12.634V12.6421Z" fill="white"/>
<path d="M544.063 21.3923H546.223C546.583 21.3923 546.879 21.6886 546.879 22.0489V28.7341H548.311V22.0489C548.311 21.6886 548.607 21.3923 548.967 21.3923H551.143V20.1514H544.063V21.3923Z" fill="white"/>
<path d="M560.986 20.1514H559.602C559.402 20.1514 559.234 20.2795 559.17 20.4636L557.314 25.9879C557.25 26.172 557.082 26.3001 556.882 26.3001C556.682 26.3001 556.514 26.18 556.45 25.9879L554.586 20.4636C554.522 20.2795 554.354 20.1514 554.154 20.1514H552.778C552.53 20.1514 552.322 20.3595 552.322 20.6077V28.7421H553.666V22.1929L553.898 22.1529L555.986 28.1176C556.026 28.2297 556.138 28.3097 556.258 28.3097H557.506C557.626 28.3097 557.738 28.2297 557.778 28.1176L559.858 22.1529L560.09 22.1929V28.7421H561.442V20.6077C561.442 20.3595 561.234 20.1514 560.986 20.1514Z" fill="white"/>
</svg>
