<svg width="342" height="53" viewBox="0 0 342 53" fill="none" xmlns="http://www.w3.org/2000/svg">
<path d="M100.269 12.1028H99.4517C87.9423 12.1028 83.8445 19.6451 83.8445 26.7182C83.8445 35.4652 90.1145 41.3482 99.4517 41.3482H100.753C107.787 41.3482 112.896 38.3148 115.083 32.964H109.984C108.145 35.77 105.335 37.2359 100.753 37.2359H99.4517C93.2495 37.2359 89.4807 33.9751 88.6099 28.7598H115.77V26.7037C115.77 17.6954 109.834 12.1028 100.274 12.1028H100.269ZM88.6002 24.6476C89.1517 21.1352 90.9563 16.215 99.4565 16.215H100.274C106.728 16.215 110.245 19.2581 111.034 24.6476H88.6051H88.6002Z" fill="black"/>
<path d="M197.767 12.1023H196.95C185.44 12.1023 181.343 19.6447 181.343 26.7177C181.343 35.4647 187.613 41.3477 196.95 41.3477H198.251C205.285 41.3477 210.389 38.3143 212.581 32.9635H207.482C205.643 35.7695 202.833 37.2354 198.251 37.2354H196.95C190.748 37.2354 186.979 33.9746 186.108 28.7593H213.268V26.7032C213.268 17.695 207.332 12.1023 197.772 12.1023H197.767ZM186.098 24.6471C186.65 21.1347 188.454 16.2145 196.955 16.2145H197.772C204.226 16.2145 207.743 19.2576 208.532 24.6471H186.103H186.098Z" fill="black"/>
<path d="M174.549 26.0405C172.241 24.7488 169.817 24.6085 165.202 24.6085H163.794C156.934 24.6085 155.802 22.7023 155.802 20.5398C155.802 18.9674 156.9 17.6612 158.641 16.9548C160.373 16.2533 162.202 16.1711 163.794 16.1711H165.221C168.608 16.1711 170.069 16.8678 171.467 18.2563C172.768 19.548 172.909 21.0187 172.909 21.5896H177.505C177.505 19.2916 176.537 17.0129 174.849 15.339C173.32 13.8198 170.402 12.0153 165.207 12.0637H163.794C161.859 12.0637 159.014 12.175 156.614 13.1474C153.363 14.4633 151.341 17.1677 151.21 20.3753C151.089 23.3555 152.512 26.0211 155.328 27.3806C157.717 28.5369 159.691 28.7304 163.233 28.7207H165.207C169.42 28.7207 170.678 28.861 172.057 29.6303C173.441 30.4043 174.123 31.7735 173.881 33.2926C173.596 35.1068 172.125 36.4469 169.957 36.8823C169.836 36.9065 169.711 36.9259 169.59 36.9404C168.119 37.1581 167.108 37.2452 165.613 37.25C165.09 37.25 164.568 37.2404 164.045 37.221C163.387 37.1968 162.73 37.1581 162.076 37.1097C157.021 36.742 155.671 33.6264 155.671 31.846H151.075C151.075 35.997 154.273 40.6995 161.293 41.2123C162.188 41.2752 163.107 41.3139 163.721 41.3333C164.234 41.3478 164.737 41.3574 165.192 41.3574C165.236 41.3574 165.279 41.3574 165.318 41.3574C168.932 41.3574 171.133 40.9317 171.23 40.9124C175.11 40.1383 177.863 37.4726 178.332 33.9264C178.753 30.7333 177.398 27.637 174.539 26.0357L174.549 26.0405Z" fill="black"/>
<path d="M134.096 12.1328H132.921C132.921 12.1328 132.916 12.1328 132.911 12.1328C126.23 12.1328 121.76 15.4952 120.299 21.5958H125.078C126.24 17.9916 128.799 16.2257 133.458 16.2451H134.019C139.776 16.2451 143.308 19.3946 143.405 24.6728L128.436 24.6921C123.685 24.6921 120.778 26.3854 119.563 29.9558C118.455 33.2021 119.737 36.7338 122.505 38.935C122.664 39.0608 122.829 39.1915 122.998 39.3076C123.017 39.3172 123.032 39.3317 123.051 39.3462C123.264 39.4914 123.487 39.6269 123.709 39.7575C123.796 39.8059 123.883 39.8542 123.975 39.9026C124.087 39.9607 124.198 40.0139 124.309 40.0719C124.987 40.3961 125.698 40.6428 126.419 40.8267C128.189 41.2766 130.023 41.3637 131.619 41.3637C135.596 41.3637 139.457 40.4396 142.466 38.2529C142.785 38.0207 143.23 38.2481 143.23 38.6399V40.8315H147.526V40.8267V24.8953C147.526 17.1498 142.253 12.1425 134.092 12.1425L134.096 12.1328ZM136.172 36.7483C134.454 37.1498 133.109 37.2418 131.948 37.2418C129.471 37.2418 127.715 36.9708 126.457 36.3806C124.851 35.742 123.748 34.4212 123.748 32.7957C123.748 31.5136 124.212 30.5751 124.967 29.9268C125.02 29.8784 125.078 29.83 125.141 29.7817C126.041 29.1043 127.299 28.7947 128.697 28.7947L129.554 28.785H143.409C143.284 33.8842 139.631 35.9452 136.177 36.7531L136.172 36.7483Z" fill="black"/>
<path d="M243.536 0.53125H238.94V40.8313H243.536V0.53125Z" fill="black"/>
<path d="M263.823 12.1235H263.131C251.627 12.1235 247.524 19.6659 247.524 26.7003C247.524 33.7395 251.627 41.2818 263.131 41.2818H263.823C275.328 41.2818 279.43 33.7394 279.43 26.7051C279.43 19.6659 275.328 12.1235 263.823 12.1235ZM263.823 37.1695H263.131C253.073 37.1695 252.125 29.8691 252.12 26.7003C252.125 23.5362 253.131 16.2309 263.131 16.2309H263.823C273.881 16.2309 274.829 23.5314 274.834 26.7003C274.829 29.8643 273.876 37.1695 263.823 37.1695Z" fill="black"/>
<path d="M322.813 12.6206L320.549 34.8171C320.384 36.1282 319.262 37.12 317.941 37.12H316.083C314.801 37.12 313.703 36.1911 313.49 34.9284L310.805 18.4842C310.331 15.6685 308.517 13.6221 304.888 13.6221C301.207 13.6221 299.417 15.6685 298.943 18.4842L296.258 34.9284C296.045 36.1959 294.951 37.12 293.664 37.12H291.807C290.486 37.12 289.364 36.1282 289.199 34.8171L286.935 12.6206H282.315L284.637 35.3251C285.058 38.6923 287.932 41.2274 291.328 41.2274H293.873C297.177 41.2274 299.973 38.8616 300.52 35.6008L303.205 18.6729C303.345 17.8456 303.974 17.2505 304.879 17.2505C305.783 17.2505 306.408 17.8456 306.548 18.6729L309.233 35.6008C309.78 38.8616 312.576 41.2274 315.88 41.2274H318.425C321.816 41.2274 324.695 38.6874 325.116 35.3251L327.438 12.6206H322.818H322.813Z" fill="black"/>
<path d="M228.389 0.536093C224.005 0.536093 220.45 4.09197 220.45 8.47514V12.6068H214.905V16.719H220.503V40.8265H225.099V17.6866C225.099 17.1544 225.534 16.719 226.066 16.719H235.805V12.6068H225.152V8.37357C225.152 6.25938 226.865 4.54674 228.979 4.54674H235.805V0.53125H228.389V0.536093Z" fill="black"/>
<path d="M331.701 13.9279C331.701 13.7392 331.551 13.5892 331.362 13.5892H329.92V12.6506H334.541V13.5892H333.094C332.905 13.5892 332.755 13.7392 332.755 13.9279V18.224H331.701V13.9279Z" fill="black"/>
<path d="M336.15 14.016V18.225H335.153V13.0193C335.153 12.8161 335.318 12.6565 335.516 12.6565H336.387C336.542 12.6565 336.682 12.7581 336.73 12.9032L337.911 16.3914C337.974 16.5849 338.245 16.5801 338.312 16.3914L339.483 12.9032C339.532 12.7533 339.672 12.6565 339.827 12.6565H340.702C340.906 12.6565 341.065 12.821 341.065 13.0193V18.225H340.059V14.016L338.743 17.7799C338.709 17.8815 338.607 17.954 338.501 17.954H337.712C337.601 17.954 337.504 17.8863 337.471 17.7799L336.155 14.016H336.15Z" fill="black"/>
<path d="M59.3998 7.93977C57.011 5.55101 54.2337 3.6803 51.135 2.3708C47.9308 1.01333 44.5252 0.327393 41.014 0.327393H26.9452C23.4436 0.327393 20.0428 1.01812 16.8434 2.3708C13.7495 3.6803 10.9674 5.5558 8.57863 7.93977C6.18987 10.3237 4.31915 13.1058 3.00965 16.2045C2.43884 17.5476 1.99275 18.929 1.65698 20.3345H5.78695C6.03158 19.4615 6.33378 18.6028 6.68873 17.7634C7.79677 15.1444 9.38448 12.7893 11.4039 10.7698C13.4233 8.75042 15.7785 7.1627 18.3975 6.05466C21.1076 4.90825 23.9905 4.32783 26.9596 4.32783H41.0092C43.9783 4.32783 46.8612 4.90825 49.5713 6.05466C52.1903 7.1627 54.5455 8.75042 56.5649 10.7698C58.5843 12.7893 60.172 15.1444 61.2801 17.7634C62.4265 20.4736 63.0069 23.3564 63.0069 26.3256C63.0069 29.2947 62.4265 32.1775 61.2801 34.8877C60.172 37.5067 58.5843 39.8619 56.5649 41.8813C54.5455 43.9007 52.1903 45.4884 49.5713 46.5965C46.8612 47.7429 43.9783 48.3233 41.0092 48.3233H26.9596C23.9905 48.3233 21.1076 47.7429 18.3975 46.5965C15.7785 45.4884 13.4233 43.9007 11.4039 41.8813C9.38448 39.8619 7.79677 37.5067 6.68873 34.8877C6.33378 34.0482 6.03638 33.1945 5.78695 32.3262H1.65698C1.98796 33.7317 2.43884 35.1083 3.00486 36.4466C4.31436 39.5405 6.18987 42.3226 8.57384 44.7113C10.9626 47.1001 13.7399 48.9708 16.8386 50.2803C20.038 51.633 23.4388 52.3237 26.9404 52.3237H41.0092C44.5156 52.3237 47.9212 51.6378 51.1302 50.2803C54.2241 48.9708 57.0062 47.0953 59.395 44.7113C61.7837 42.3226 63.6544 39.5453 64.9639 36.4466C66.3214 33.2424 67.0073 29.8368 67.0073 26.3256C67.0073 22.8144 66.3214 19.4135 64.9639 16.2045C63.6544 13.1106 61.7789 10.3285 59.395 7.93977H59.3998Z" fill="black"/>
<path d="M41.311 28.3206C46.4195 28.3206 46.7457 35.9809 41.6467 36.3023C41.4405 36.3167 41.2294 36.3215 41.0184 36.3215H26.9209V40.322H40.745C44.1554 40.322 47.5131 39.1995 50.1033 36.9786C53.6721 33.9183 55.4517 29.4238 54.9288 24.7231C54.6123 21.869 53.3987 19.1637 51.48 17.0243C48.7747 14.0024 45.0812 12.3284 41.0664 12.3284H26.9688V16.3288H41.0664C41.2486 16.3288 41.3781 16.3336 41.5556 16.3432C46.7121 16.6166 46.4722 24.3297 41.3062 24.3297H1.04261C0.99464 24.9917 0.965858 25.6584 0.965858 26.33C0.965858 27.0015 0.989844 27.6682 1.04261 28.3302H41.3062L41.311 28.3206Z" fill="black"/>
</svg>
