<svg width="45" height="36" viewBox="0 0 45 36" fill="none" xmlns="http://www.w3.org/2000/svg">
<path d="M27.333 0C29.7188 0 32.0324 0.474439 34.21 1.41406C36.3148 2.32002 38.2018 3.6169 39.8242 5.27051L39.8271 5.26758C41.4496 6.92119 42.7224 8.84733 43.6113 10.9893C44.5332 13.212 44.999 15.5665 44.999 17.998C44.999 20.4296 44.5332 22.7874 43.6113 25.0068C42.7224 27.1522 41.4496 29.0792 39.8271 30.7295C38.2047 32.3796 36.3177 33.68 34.2129 34.5859C32.0322 35.5254 29.7192 36 27.3369 36H17.6445C15.2654 36 12.9555 35.5222 10.7812 34.5859C8.67635 33.68 6.78946 32.3831 5.16699 30.7295C3.54782 29.0758 2.27268 27.1489 1.38379 25.0068C1.04345 24.1851 0.762029 23.3294 0.543945 22.4639H2.88672C3.04864 23.0263 3.24442 23.5792 3.46582 24.1113C4.24236 25.9804 5.35238 27.6611 6.7666 29.1025C8.18088 30.544 9.83013 31.6753 11.6641 32.4668C13.5607 33.2851 15.5798 33.6992 17.6582 33.6992H27.3369C29.4153 33.6992 31.4344 33.2852 33.3311 32.4668C35.1649 31.6753 36.8143 30.544 38.2285 29.1025C39.6427 27.6611 40.7528 25.9804 41.5293 24.1113C42.3322 22.1782 42.7382 20.1203 42.7383 18.002C42.7383 15.8836 42.3322 13.8257 41.5293 11.8926C40.7528 10.0235 39.6426 8.34276 38.2285 6.90137C36.8142 5.45989 35.165 4.3276 33.3311 3.53613C31.4344 2.71775 29.4153 2.30374 27.3369 2.30371H17.6582C15.5798 2.30371 13.5607 2.71783 11.6641 3.53613C9.82679 4.3276 8.1809 5.45988 6.7666 6.90137C5.35239 8.34618 4.24233 10.0234 3.46582 11.8926C3.24115 12.4247 3.04569 12.9806 2.88379 13.543H0.541016C0.759099 12.6741 1.04015 11.8183 1.38379 10.9932C2.27268 8.84778 3.54451 6.92417 5.16699 5.27051C6.78946 3.61687 8.67965 2.32003 10.7812 1.41406C12.9555 0.477806 15.2654 2.94588e-05 17.6445 0H27.333ZM27.377 8.42676C30.0635 8.42676 32.5455 9.56836 34.3662 11.6396C35.6482 13.0979 36.4682 14.9669 36.6797 16.9033C37.0267 20.1265 35.8464 23.1851 33.4375 25.29C31.7523 26.7651 29.5182 27.5771 27.1523 27.5771H17.877V25.2734H27.3408C27.4927 25.2734 27.6414 25.2699 27.79 25.2598C29.6209 25.1461 30.4767 23.7534 30.541 22.417L30.543 22.1543C30.5 20.7096 29.5418 19.1575 27.543 19.1572H0.0361328C0.0130017 18.7733 0 18.3888 0 18.0049C1.60327e-06 17.6211 0.0130193 17.2339 0.0361328 16.8535H27.543C29.5518 16.8533 30.5066 15.3037 30.543 13.8623C30.5793 12.4343 29.7168 10.848 27.7275 10.7402C27.5987 10.7301 27.5058 10.7305 27.377 10.7305H17.9131V8.42676H27.377Z" fill="#00F370"/>
</svg>
