<svg width="45" height="31" viewBox="0 0 45 31" fill="none" xmlns="http://www.w3.org/2000/svg">
<path d="M24.3533 16.6272C20.5298 16.6272 17.4302 19.7268 17.4302 23.5504L17.4302 25.7212L15.0548 25.7213L15.0548 23.5504C15.0548 19.7268 11.9552 16.6272 8.13167 16.6272L0.592834 16.6272L0.592835 14.2518L8.13168 14.2518C11.9552 14.2518 15.0548 11.1523 15.0548 7.32872L15.0548 5.15782L17.4302 5.15782L17.4302 7.32872C17.4302 11.1523 20.5298 14.2518 24.3533 14.2518L39.5889 14.2518L39.5889 16.6272L24.3533 16.6272Z" fill="#FF4B82"/>
<path d="M29.5605 0C38.0877 0.000162044 45 6.91322 45 15.4404C44.9998 23.9675 38.0876 30.8797 29.5605 30.8799H15.4404C8.13948 30.8799 2.02269 25.8124 0.414062 19.0029H2.86621C4.41725 24.4867 9.46013 28.5049 15.4404 28.5049H29.5605C36.7757 28.5047 42.6248 22.6556 42.625 15.4404C42.625 8.22512 36.7758 2.37516 29.5605 2.375H15.4404C9.46027 2.375 4.41817 6.39338 2.86719 11.877H0.414062C2.02269 5.06755 8.13956 0 15.4404 0H29.5605ZM2.42969 14.252C2.39441 14.6433 2.375 15.0399 2.375 15.4404C2.37501 15.8408 2.39442 16.2368 2.42969 16.6279H0.0449219C0.0151011 16.236 9.48589e-06 15.84 0 15.4404C0 15.0407 0.0150827 14.6441 0.0449219 14.252H2.42969Z" fill="#FF4B82"/>
</svg>
